<?xml version="1.0" encoding="UTF-8" standalone="no"?><!-- Generator: Gravit.io --><svg xmlns="http://www.w3.org/2000/svg" xmlns:xlink="http://www.w3.org/1999/xlink" style="isolation:isolate" viewBox="0 0 150 150" width="150pt" height="150pt"><defs><clipPath id="_clipPath_3kPjQ8TnvLO8wT5Dh6F9fcvzivYrDqNF"><rect width="150" height="150"/></clipPath></defs><g clip-path="url(#_clipPath_3kPjQ8TnvLO8wT5Dh6F9fcvzivYrDqNF)"><circle vector-effect="non-scaling-stroke" cx="75" cy="75" r="75" fill="rgb(86,142,166)"/><circle vector-effect="non-scaling-stroke" cx="74.99999999999999" cy="75.00000000000001" r="72.59722629790058" fill="rgb(16,55,72)"/><path d=" M 107.934 58.25 L 107.934 37 C 107.934 28.721 101.981 25.119 94.647 28.962 L 57.357 48.5 L 20.066 68.038 C 12.733 71.881 12.733 78.119 20.066 81.962 L 57.357 101.5 L 94.647 121.038 C 101.981 124.881 107.934 121.279 107.934 113 L 107.934 91.75 L 120.434 91.75 C 128.713 91.75 135.434 85.029 135.434 76.75 L 135.434 73.25 C 135.434 64.971 128.713 58.25 120.434 58.25 L 107.934 58.25 Z " fill-rule="evenodd" fill="rgb(86,142,166)"/></g></svg>