<?xml version="1.0" encoding="UTF-8" standalone="no"?><!-- Generator: Gravit.io --><svg xmlns="http://www.w3.org/2000/svg" xmlns:xlink="http://www.w3.org/1999/xlink" style="isolation:isolate" viewBox="0 0 250 250" width="250pt" height="250pt"><defs><clipPath id="_clipPath_hqzUvRf86r2iFcyroU5v7cVapvuBSncC"><rect width="250" height="250"/></clipPath></defs><g clip-path="url(#_clipPath_hqzUvRf86r2iFcyroU5v7cVapvuBSncC)"><path d="M 61.336 0 L 188.664 0 C 222.516 0 250 27.484 250 61.336 L 250 188.664 C 250 222.516 222.516 250 188.664 250 L 61.336 250 C 27.484 250 0 222.516 0 188.664 L 0 61.336 C 0 27.484 27.484 0 61.336 0 Z" style="stroke:none;fill:#568EA6;stroke-miterlimit:10;"/><g><path d="M 180.372 43.657 L 187.075 48.568 C 192.537 52.569 193.61 60.167 189.469 65.523 L 104.996 174.81 L 78.5 155.4 L 162.973 46.114 C 167.114 40.757 174.91 39.656 180.372 43.657 Z" style="stroke:none;fill:#103748;stroke-miterlimit:10;"/><path d=" M 69.995 200.492 L 58.015 208.749 L 62.846 195.254 L 69.995 200.492 L 69.995 200.492 Z " fill="rgb(16,55,72)"/><path d=" M 71.095 199.069 L 81.314 192.026 L 103.513 176.727 L 90.266 167.022 L 77.018 157.318 L 68.066 182.321 L 63.946 193.831 L 71.095 199.069 L 71.095 199.069 Z " fill="rgb(16,55,72)"/></g></g></svg>