<?xml version="1.0" encoding="UTF-8" standalone="no"?><!-- Generator: Gravit.io --><svg xmlns="http://www.w3.org/2000/svg" xmlns:xlink="http://www.w3.org/1999/xlink" style="isolation:isolate" viewBox="0 0 2270 500" width="2270pt" height="500pt"><defs><clipPath id="_clipPath_VlYeKeD4RoW14YN3iCF58ECxvHCJScDM"><rect width="2270" height="500"/></clipPath></defs><g clip-path="url(#_clipPath_VlYeKeD4RoW14YN3iCF58ECxvHCJScDM)"><path d=" M 703.46 360.073 L 702.389 360.073 C 693.242 360.073 688.795 352.162 688.795 343.018 L 688.795 265.766 C 688.795 254.753 696.127 245.829 703.46 245.829 L 703.46 69.922 L 590.865 70.215 L 592.731 214.457 L 466.234 214.167 C 496.503 214.189 699.794 428.072 703.46 500 L 703.46 360.073 Z  M 811.282 233.72 C 782.711 255.487 750.407 223.183 772.174 194.612 C 800.745 172.845 833.048 205.149 811.282 233.72 L 811.282 233.72 Z  M 872.457 209.904 L 907.239 159.218 L 876.431 131.391 L 894.323 0.205 L 810.714 69.776 L 710.793 69.915 L 710.793 491.803 C 714.459 483.627 723.464 476.456 731.486 470.612 L 731.552 470.608 C 731.24 469.574 714.83 415.988 714.83 415.988 L 765.959 431.537 L 749.208 376.906 L 800.587 392.433 L 783.833 337.805 C 783.833 337.805 831.245 351.858 834.977 352.965 C 863.959 272.08 943.234 214.164 943.234 214.164 L 872.457 209.904 L 872.457 209.904 Z " fill-rule="evenodd" fill="rgb(255,255,255)"/><path d=" M 1819.438 286.126 L 1819.438 193.247 L 1857.253 193.247 L 1857.253 193.247 Q 1871.981 193.247 1883.259 199.152 L 1883.259 199.152 L 1883.259 199.152 Q 1894.537 205.056 1900.773 215.605 L 1900.773 215.605 L 1900.773 215.605 Q 1907.01 226.153 1907.01 239.687 L 1907.01 239.687 L 1907.01 239.687 Q 1907.01 253.22 1900.773 263.769 L 1900.773 263.769 L 1900.773 263.769 Q 1894.537 274.317 1883.259 280.222 L 1883.259 280.222 L 1883.259 280.222 Q 1871.981 286.126 1857.253 286.126 L 1857.253 286.126 L 1819.438 286.126 Z  M 1829.257 277.634 L 1856.722 277.634 L 1856.722 277.634 Q 1868.929 277.634 1878.085 272.791 L 1878.085 272.791 L 1878.085 272.791 Q 1887.24 267.948 1892.282 259.39 L 1892.282 259.39 L 1892.282 259.39 Q 1897.324 250.832 1897.324 239.687 L 1897.324 239.687 L 1897.324 239.687 Q 1897.324 228.541 1892.282 219.983 L 1892.282 219.983 L 1892.282 219.983 Q 1887.24 211.425 1878.085 206.582 L 1878.085 206.582 L 1878.085 206.582 Q 1868.929 201.739 1856.722 201.739 L 1856.722 201.739 L 1829.257 201.739 L 1829.257 277.634 Z  M 1987.947 251.23 L 1987.814 254.149 L 1929.433 254.149 L 1929.433 254.149 Q 1930.229 265.029 1937.792 271.73 L 1937.792 271.73 L 1937.792 271.73 Q 1945.355 278.43 1956.899 278.43 L 1956.899 278.43 L 1956.899 278.43 Q 1963.4 278.43 1968.84 276.108 L 1968.84 276.108 L 1968.84 276.108 Q 1974.28 273.786 1978.261 269.275 L 1978.261 269.275 L 1983.568 275.379 L 1983.568 275.379 Q 1978.924 280.951 1971.958 283.87 L 1971.958 283.87 L 1971.958 283.87 Q 1964.992 286.789 1956.633 286.789 L 1956.633 286.789 L 1956.633 286.789 Q 1945.886 286.789 1937.593 282.212 L 1937.593 282.212 L 1937.593 282.212 Q 1929.3 277.634 1924.657 269.54 L 1924.657 269.54 L 1924.657 269.54 Q 1920.013 261.447 1920.013 251.23 L 1920.013 251.23 L 1920.013 251.23 Q 1920.013 241.013 1924.457 232.92 L 1924.457 232.92 L 1924.457 232.92 Q 1928.902 224.826 1936.665 220.315 L 1936.665 220.315 L 1936.665 220.315 Q 1944.426 215.804 1954.112 215.804 L 1954.112 215.804 L 1954.112 215.804 Q 1963.798 215.804 1971.494 220.315 L 1971.494 220.315 L 1971.494 220.315 Q 1979.19 224.826 1983.568 232.853 L 1983.568 232.853 L 1983.568 232.853 Q 1987.947 240.881 1987.947 251.23 L 1987.947 251.23 Z  M 1954.112 223.897 L 1954.112 223.897 Q 1944.028 223.897 1937.195 230.332 L 1937.195 230.332 L 1937.195 230.332 Q 1930.362 236.768 1929.433 247.117 L 1929.433 247.117 L 1978.924 247.117 L 1978.924 247.117 Q 1977.995 236.768 1971.162 230.332 L 1971.162 230.332 L 1971.162 230.332 Q 1964.329 223.897 1954.112 223.897 L 1954.112 223.897 Z  M 2025.894 286.789 L 2025.894 286.789 Q 2017.402 286.789 2009.641 284.335 L 2009.641 284.335 L 2009.641 284.335 Q 2001.878 281.88 1997.5 278.165 L 1997.5 278.165 L 2001.746 270.735 L 2001.746 270.735 Q 2006.124 274.184 2012.759 276.374 L 2012.759 276.374 L 2012.759 276.374 Q 2019.393 278.563 2026.558 278.563 L 2026.558 278.563 L 2026.558 278.563 Q 2036.111 278.563 2040.688 275.578 L 2040.688 275.578 L 2040.688 275.578 Q 2045.266 272.592 2045.266 267.152 L 2045.266 267.152 L 2045.266 267.152 Q 2045.266 263.304 2042.745 261.115 L 2042.745 261.115 L 2042.745 261.115 Q 2040.224 258.926 2036.376 257.798 L 2036.376 257.798 L 2036.376 257.798 Q 2032.528 256.67 2026.16 255.609 L 2026.16 255.609 L 2026.16 255.609 Q 2017.668 254.016 2012.493 252.358 L 2012.493 252.358 L 2012.493 252.358 Q 2007.319 250.699 2003.67 246.719 L 2003.67 246.719 L 2003.67 246.719 Q 2000.021 242.738 2000.021 235.706 L 2000.021 235.706 L 2000.021 235.706 Q 2000.021 226.949 2007.319 221.376 L 2007.319 221.376 L 2007.319 221.376 Q 2014.616 215.804 2027.619 215.804 L 2027.619 215.804 L 2027.619 215.804 Q 2034.386 215.804 2041.153 217.595 L 2041.153 217.595 L 2041.153 217.595 Q 2047.92 219.386 2052.298 222.305 L 2052.298 222.305 L 2048.185 229.868 L 2048.185 229.868 Q 2039.561 223.897 2027.619 223.897 L 2027.619 223.897 L 2027.619 223.897 Q 2018.597 223.897 2014.019 227.082 L 2014.019 227.082 L 2014.019 227.082 Q 2009.441 230.266 2009.441 235.441 L 2009.441 235.441 L 2009.441 235.441 Q 2009.441 239.421 2012.029 241.81 L 2012.029 241.81 L 2012.029 241.81 Q 2014.616 244.198 2018.464 245.326 L 2018.464 245.326 L 2018.464 245.326 Q 2022.312 246.454 2029.079 247.648 L 2029.079 247.648 L 2029.079 247.648 Q 2037.438 249.24 2042.48 250.832 L 2042.48 250.832 L 2042.48 250.832 Q 2047.522 252.424 2051.104 256.272 L 2051.104 256.272 L 2051.104 256.272 Q 2054.687 260.12 2054.687 266.887 L 2054.687 266.887 L 2054.687 266.887 Q 2054.687 276.042 2047.057 281.416 L 2047.057 281.416 L 2047.057 281.416 Q 2039.428 286.789 2025.894 286.789 L 2025.894 286.789 Z  M 2072.068 286.126 L 2072.068 216.334 L 2081.489 216.334 L 2081.489 286.126 L 2072.068 286.126 Z  M 2076.845 201.076 L 2076.845 201.076 Q 2073.926 201.076 2071.935 199.085 L 2071.935 199.085 L 2071.935 199.085 Q 2069.945 197.095 2069.945 194.309 L 2069.945 194.309 L 2069.945 194.309 Q 2069.945 191.655 2071.935 189.665 L 2071.935 189.665 L 2071.935 189.665 Q 2073.926 187.675 2076.845 187.675 L 2076.845 187.675 L 2076.845 187.675 Q 2079.764 187.675 2081.754 189.599 L 2081.754 189.599 L 2081.754 189.599 Q 2083.744 191.522 2083.744 194.176 L 2083.744 194.176 L 2083.744 194.176 Q 2083.744 197.095 2081.754 199.085 L 2081.754 199.085 L 2081.754 199.085 Q 2079.764 201.076 2076.845 201.076 L 2076.845 201.076 Z  M 2163.355 216.334 L 2172.377 216.334 L 2172.377 277.634 L 2172.377 277.634 Q 2172.377 295.414 2163.686 303.972 L 2163.686 303.972 L 2163.686 303.972 Q 2154.996 312.53 2137.481 312.53 L 2137.481 312.53 L 2137.481 312.53 Q 2127.795 312.53 2119.105 309.677 L 2119.105 309.677 L 2119.105 309.677 Q 2110.414 306.825 2104.974 301.783 L 2104.974 301.783 L 2109.75 294.618 L 2109.75 294.618 Q 2114.792 299.129 2122.024 301.65 L 2122.024 301.65 L 2122.024 301.65 Q 2129.255 304.171 2137.216 304.171 L 2137.216 304.171 L 2137.216 304.171 Q 2150.484 304.171 2156.72 298.001 L 2156.72 298.001 L 2156.72 298.001 Q 2162.957 291.831 2162.957 278.828 L 2162.957 278.828 L 2162.957 269.939 L 2162.957 269.939 Q 2158.578 276.573 2151.479 280.022 L 2151.479 280.022 L 2151.479 280.022 Q 2144.381 283.472 2135.756 283.472 L 2135.756 283.472 L 2135.756 283.472 Q 2125.938 283.472 2117.91 279.16 L 2117.91 279.16 L 2117.91 279.16 Q 2109.883 274.848 2105.306 267.086 L 2105.306 267.086 L 2105.306 267.086 Q 2100.728 259.324 2100.728 249.505 L 2100.728 249.505 L 2100.728 249.505 Q 2100.728 239.687 2105.306 231.991 L 2105.306 231.991 L 2105.306 231.991 Q 2109.883 224.295 2117.844 220.049 L 2117.844 220.049 L 2117.844 220.049 Q 2125.805 215.804 2135.756 215.804 L 2135.756 215.804 L 2135.756 215.804 Q 2144.646 215.804 2151.811 219.386 L 2151.811 219.386 L 2151.811 219.386 Q 2158.976 222.969 2163.355 229.735 L 2163.355 229.735 L 2163.355 216.334 Z  M 2136.685 275.113 L 2136.685 275.113 Q 2144.248 275.113 2150.351 271.862 L 2150.351 271.862 L 2150.351 271.862 Q 2156.455 268.612 2159.838 262.774 L 2159.838 262.774 L 2159.838 262.774 Q 2163.222 256.936 2163.222 249.505 L 2163.222 249.505 L 2163.222 249.505 Q 2163.222 242.075 2159.838 236.303 L 2159.838 236.303 L 2159.838 236.303 Q 2156.455 230.531 2150.418 227.281 L 2150.418 227.281 L 2150.418 227.281 Q 2144.381 224.03 2136.685 224.03 L 2136.685 224.03 L 2136.685 224.03 Q 2129.122 224.03 2123.085 227.214 L 2123.085 227.214 L 2123.085 227.214 Q 2117.048 230.399 2113.664 236.237 L 2113.664 236.237 L 2113.664 236.237 Q 2110.281 242.075 2110.281 249.505 L 2110.281 249.505 L 2110.281 249.505 Q 2110.281 256.936 2113.664 262.774 L 2113.664 262.774 L 2113.664 262.774 Q 2117.048 268.612 2123.085 271.862 L 2123.085 271.862 L 2123.085 271.862 Q 2129.122 275.113 2136.685 275.113 L 2136.685 275.113 Z  M 2234.34 215.804 L 2234.34 215.804 Q 2247.476 215.804 2255.238 223.433 L 2255.238 223.433 L 2255.238 223.433 Q 2263 231.062 2263 245.657 L 2263 245.657 L 2263 286.126 L 2253.579 286.126 L 2253.579 246.586 L 2253.579 246.586 Q 2253.579 235.706 2248.139 230.001 L 2248.139 230.001 L 2248.139 230.001 Q 2242.699 224.295 2232.615 224.295 L 2232.615 224.295 L 2232.615 224.295 Q 2221.337 224.295 2214.769 230.996 L 2214.769 230.996 L 2214.769 230.996 Q 2208.202 237.696 2208.202 249.505 L 2208.202 249.505 L 2208.202 286.126 L 2198.781 286.126 L 2198.781 216.334 L 2207.804 216.334 L 2207.804 229.205 L 2207.804 229.205 Q 2211.651 222.836 2218.485 219.32 L 2218.485 219.32 L 2218.485 219.32 Q 2225.318 215.804 2234.34 215.804 L 2234.34 215.804 Z  M 1090.209 286.126 L 1052.261 242.473 L 1033.287 261.712 L 1033.287 286.126 L 1023.469 286.126 L 1023.469 193.247 L 1033.287 193.247 L 1033.287 249.373 L 1087.82 193.247 L 1099.098 193.247 L 1058.895 235.308 L 1101.885 286.126 L 1090.209 286.126 Z  M 1138.373 215.804 L 1138.373 215.804 Q 1152.039 215.804 1159.337 222.637 L 1159.337 222.637 L 1159.337 222.637 Q 1166.634 229.47 1166.634 242.871 L 1166.634 242.871 L 1166.634 286.126 L 1157.612 286.126 L 1157.612 275.246 L 1157.612 275.246 Q 1154.428 280.686 1148.258 283.738 L 1148.258 283.738 L 1148.258 283.738 Q 1142.088 286.789 1133.596 286.789 L 1133.596 286.789 L 1133.596 286.789 Q 1121.92 286.789 1115.021 281.217 L 1115.021 281.217 L 1115.021 281.217 Q 1108.121 275.644 1108.121 266.489 L 1108.121 266.489 L 1108.121 266.489 Q 1108.121 257.599 1114.556 252.159 L 1114.556 252.159 L 1114.556 252.159 Q 1120.991 246.719 1135.056 246.719 L 1135.056 246.719 L 1157.214 246.719 L 1157.214 242.473 L 1157.214 242.473 Q 1157.214 233.451 1152.172 228.74 L 1152.172 228.74 L 1152.172 228.74 Q 1147.13 224.03 1137.444 224.03 L 1137.444 224.03 L 1137.444 224.03 Q 1130.81 224.03 1124.706 226.219 L 1124.706 226.219 L 1124.706 226.219 Q 1118.603 228.409 1114.224 232.256 L 1114.224 232.256 L 1109.979 225.224 L 1109.979 225.224 Q 1115.286 220.713 1122.716 218.258 L 1122.716 218.258 L 1122.716 218.258 Q 1130.146 215.804 1138.373 215.804 L 1138.373 215.804 Z  M 1135.056 279.359 L 1135.056 279.359 Q 1143.017 279.359 1148.722 275.71 L 1148.722 275.71 L 1148.722 275.71 Q 1154.428 272.061 1157.214 265.162 L 1157.214 265.162 L 1157.214 253.751 L 1135.321 253.751 L 1135.321 253.751 Q 1117.409 253.751 1117.409 266.223 L 1117.409 266.223 L 1117.409 266.223 Q 1117.409 272.327 1122.053 275.843 L 1122.053 275.843 L 1122.053 275.843 Q 1126.697 279.359 1135.056 279.359 L 1135.056 279.359 Z  M 1201.265 230.001 L 1201.265 230.001 Q 1204.582 222.969 1211.15 219.386 L 1211.15 219.386 L 1211.15 219.386 Q 1217.718 215.804 1227.404 215.804 L 1227.404 215.804 L 1227.404 224.959 L 1225.148 224.826 L 1225.148 224.826 Q 1214.135 224.826 1207.899 231.593 L 1207.899 231.593 L 1207.899 231.593 Q 1201.663 238.36 1201.663 250.567 L 1201.663 250.567 L 1201.663 286.126 L 1192.242 286.126 L 1192.242 216.334 L 1201.265 216.334 L 1201.265 230.001 Z  M 1268.668 215.804 L 1268.668 215.804 Q 1282.335 215.804 1289.632 222.637 L 1289.632 222.637 L 1289.632 222.637 Q 1296.93 229.47 1296.93 242.871 L 1296.93 242.871 L 1296.93 286.126 L 1287.907 286.126 L 1287.907 275.246 L 1287.907 275.246 Q 1284.723 280.686 1278.553 283.738 L 1278.553 283.738 L 1278.553 283.738 Q 1272.383 286.789 1263.892 286.789 L 1263.892 286.789 L 1263.892 286.789 Q 1252.216 286.789 1245.316 281.217 L 1245.316 281.217 L 1245.316 281.217 Q 1238.416 275.644 1238.416 266.489 L 1238.416 266.489 L 1238.416 266.489 Q 1238.416 257.599 1244.852 252.159 L 1244.852 252.159 L 1244.852 252.159 Q 1251.287 246.719 1265.351 246.719 L 1265.351 246.719 L 1287.509 246.719 L 1287.509 242.473 L 1287.509 242.473 Q 1287.509 233.451 1282.467 228.74 L 1282.467 228.74 L 1282.467 228.74 Q 1277.425 224.03 1267.739 224.03 L 1267.739 224.03 L 1267.739 224.03 Q 1261.105 224.03 1255.002 226.219 L 1255.002 226.219 L 1255.002 226.219 Q 1248.898 228.409 1244.52 232.256 L 1244.52 232.256 L 1240.274 225.224 L 1240.274 225.224 Q 1245.581 220.713 1253.012 218.258 L 1253.012 218.258 L 1253.012 218.258 Q 1260.442 215.804 1268.668 215.804 L 1268.668 215.804 Z  M 1265.351 279.359 L 1265.351 279.359 Q 1273.312 279.359 1279.018 275.71 L 1279.018 275.71 L 1279.018 275.71 Q 1284.723 272.061 1287.509 265.162 L 1287.509 265.162 L 1287.509 253.751 L 1265.617 253.751 L 1265.617 253.751 Q 1247.704 253.751 1247.704 266.223 L 1247.704 266.223 L 1247.704 266.223 Q 1247.704 272.327 1252.348 275.843 L 1252.348 275.843 L 1252.348 275.843 Q 1256.992 279.359 1265.351 279.359 L 1265.351 279.359 Z  M 1370.569 216.334 L 1379.857 216.334 L 1348.809 286.126 L 1339.123 286.126 L 1308.208 216.334 L 1318.027 216.334 L 1344.165 275.777 L 1370.569 216.334 Z  M 1415.417 215.804 L 1415.417 215.804 Q 1429.083 215.804 1436.38 222.637 L 1436.38 222.637 L 1436.38 222.637 Q 1443.678 229.47 1443.678 242.871 L 1443.678 242.871 L 1443.678 286.126 L 1434.656 286.126 L 1434.656 275.246 L 1434.656 275.246 Q 1431.471 280.686 1425.301 283.738 L 1425.301 283.738 L 1425.301 283.738 Q 1419.132 286.789 1410.64 286.789 L 1410.64 286.789 L 1410.64 286.789 Q 1398.964 286.789 1392.064 281.217 L 1392.064 281.217 L 1392.064 281.217 Q 1385.165 275.644 1385.165 266.489 L 1385.165 266.489 L 1385.165 266.489 Q 1385.165 257.599 1391.6 252.159 L 1391.6 252.159 L 1391.6 252.159 Q 1398.035 246.719 1412.099 246.719 L 1412.099 246.719 L 1434.258 246.719 L 1434.258 242.473 L 1434.258 242.473 Q 1434.258 233.451 1429.216 228.74 L 1429.216 228.74 L 1429.216 228.74 Q 1424.174 224.03 1414.488 224.03 L 1414.488 224.03 L 1414.488 224.03 Q 1407.854 224.03 1401.75 226.219 L 1401.75 226.219 L 1401.75 226.219 Q 1395.647 228.409 1391.268 232.256 L 1391.268 232.256 L 1387.022 225.224 L 1387.022 225.224 Q 1392.329 220.713 1399.76 218.258 L 1399.76 218.258 L 1399.76 218.258 Q 1407.19 215.804 1415.417 215.804 L 1415.417 215.804 Z  M 1412.099 279.359 L 1412.099 279.359 Q 1420.06 279.359 1425.766 275.71 L 1425.766 275.71 L 1425.766 275.71 Q 1431.471 272.061 1434.258 265.162 L 1434.258 265.162 L 1434.258 253.751 L 1412.365 253.751 L 1412.365 253.751 Q 1394.452 253.751 1394.452 266.223 L 1394.452 266.223 L 1394.452 266.223 Q 1394.452 272.327 1399.096 275.843 L 1399.096 275.843 L 1399.096 275.843 Q 1403.74 279.359 1412.099 279.359 L 1412.099 279.359 Z  M 1498.476 286.789 L 1498.476 286.789 Q 1488.127 286.789 1479.967 282.278 L 1479.967 282.278 L 1479.967 282.278 Q 1471.807 277.767 1467.163 269.607 L 1467.163 269.607 L 1467.163 269.607 Q 1462.519 261.447 1462.519 251.23 L 1462.519 251.23 L 1462.519 251.23 Q 1462.519 241.013 1467.163 232.92 L 1467.163 232.92 L 1467.163 232.92 Q 1471.807 224.826 1479.967 220.315 L 1479.967 220.315 L 1479.967 220.315 Q 1488.127 215.804 1498.476 215.804 L 1498.476 215.804 L 1498.476 215.804 Q 1507.499 215.804 1514.597 219.32 L 1514.597 219.32 L 1514.597 219.32 Q 1521.696 222.836 1525.809 229.603 L 1525.809 229.603 L 1518.777 234.379 L 1518.777 234.379 Q 1515.327 229.205 1510.02 226.617 L 1510.02 226.617 L 1510.02 226.617 Q 1504.713 224.03 1498.476 224.03 L 1498.476 224.03 L 1498.476 224.03 Q 1490.913 224.03 1484.876 227.413 L 1484.876 227.413 L 1484.876 227.413 Q 1478.839 230.797 1475.456 237.033 L 1475.456 237.033 L 1475.456 237.033 Q 1472.072 243.269 1472.072 251.23 L 1472.072 251.23 L 1472.072 251.23 Q 1472.072 259.324 1475.456 265.494 L 1475.456 265.494 L 1475.456 265.494 Q 1478.839 271.663 1484.876 275.047 L 1484.876 275.047 L 1484.876 275.047 Q 1490.913 278.43 1498.476 278.43 L 1498.476 278.43 L 1498.476 278.43 Q 1504.713 278.43 1510.02 275.909 L 1510.02 275.909 L 1510.02 275.909 Q 1515.327 273.388 1518.777 268.214 L 1518.777 268.214 L 1525.809 272.99 L 1525.809 272.99 Q 1521.696 279.757 1514.531 283.273 L 1514.531 283.273 L 1514.531 283.273 Q 1507.366 286.789 1498.476 286.789 L 1498.476 286.789 Z  M 1578.75 215.804 L 1578.75 215.804 Q 1591.886 215.804 1599.648 223.433 L 1599.648 223.433 L 1599.648 223.433 Q 1607.41 231.062 1607.41 245.657 L 1607.41 245.657 L 1607.41 286.126 L 1597.989 286.126 L 1597.989 246.586 L 1597.989 246.586 Q 1597.989 235.706 1592.549 230.001 L 1592.549 230.001 L 1592.549 230.001 Q 1587.109 224.295 1577.025 224.295 L 1577.025 224.295 L 1577.025 224.295 Q 1565.747 224.295 1559.179 230.996 L 1559.179 230.996 L 1559.179 230.996 Q 1552.611 237.696 1552.611 249.505 L 1552.611 249.505 L 1552.611 286.126 L 1543.191 286.126 L 1543.191 187.675 L 1552.611 187.675 L 1552.611 228.541 L 1552.611 228.541 Q 1556.459 222.438 1563.226 219.121 L 1563.226 219.121 L 1563.226 219.121 Q 1569.993 215.804 1578.75 215.804 L 1578.75 215.804 Z  M 1694.185 251.23 L 1694.052 254.149 L 1635.671 254.149 L 1635.671 254.149 Q 1636.468 265.029 1644.031 271.73 L 1644.031 271.73 L 1644.031 271.73 Q 1651.593 278.43 1663.137 278.43 L 1663.137 278.43 L 1663.137 278.43 Q 1669.638 278.43 1675.078 276.108 L 1675.078 276.108 L 1675.078 276.108 Q 1680.518 273.786 1684.499 269.275 L 1684.499 269.275 L 1689.806 275.379 L 1689.806 275.379 Q 1685.162 280.951 1678.197 283.87 L 1678.197 283.87 L 1678.197 283.87 Q 1671.231 286.789 1662.872 286.789 L 1662.872 286.789 L 1662.872 286.789 Q 1652.124 286.789 1643.831 282.212 L 1643.831 282.212 L 1643.831 282.212 Q 1635.539 277.634 1630.895 269.54 L 1630.895 269.54 L 1630.895 269.54 Q 1626.251 261.447 1626.251 251.23 L 1626.251 251.23 L 1626.251 251.23 Q 1626.251 241.013 1630.696 232.92 L 1630.696 232.92 L 1630.696 232.92 Q 1635.141 224.826 1642.903 220.315 L 1642.903 220.315 L 1642.903 220.315 Q 1650.665 215.804 1660.351 215.804 L 1660.351 215.804 L 1660.351 215.804 Q 1670.037 215.804 1677.732 220.315 L 1677.732 220.315 L 1677.732 220.315 Q 1685.428 224.826 1689.806 232.853 L 1689.806 232.853 L 1689.806 232.853 Q 1694.185 240.881 1694.185 251.23 L 1694.185 251.23 Z  M 1660.351 223.897 L 1660.351 223.897 Q 1650.267 223.897 1643.433 230.332 L 1643.433 230.332 L 1643.433 230.332 Q 1636.6 236.768 1635.671 247.117 L 1635.671 247.117 L 1685.162 247.117 L 1685.162 247.117 Q 1684.234 236.768 1677.4 230.332 L 1677.4 230.332 L 1677.4 230.332 Q 1670.567 223.897 1660.351 223.897 L 1660.351 223.897 Z  M 1761.456 216.334 L 1770.743 216.334 L 1739.695 286.126 L 1730.01 286.126 L 1699.094 216.334 L 1708.913 216.334 L 1735.051 275.777 L 1761.456 216.334 Z " fill="rgb(255,255,255)"/><path d=" M 309.272 226.32 L 309.272 226.32 Q 316.08 226.32 321.6 229.402 L 321.6 229.402 L 321.6 229.402 Q 327.12 232.484 330.248 238.096 L 330.248 238.096 L 330.248 238.096 Q 333.376 243.708 333.376 250.884 L 333.376 250.884 L 333.376 250.884 Q 333.376 258.06 330.248 263.672 L 330.248 263.672 L 330.248 263.672 Q 327.12 269.284 321.6 272.412 L 321.6 272.412 L 321.6 272.412 Q 316.08 275.54 309.272 275.54 L 309.272 275.54 L 309.272 275.54 Q 303.2 275.54 298.37 272.964 L 298.37 272.964 L 298.37 272.964 Q 293.54 270.388 290.596 265.512 L 290.596 265.512 L 290.596 275.08 L 284.34 275.08 L 284.34 206.816 L 290.872 206.816 L 290.872 235.888 L 290.872 235.888 Q 293.908 231.196 298.646 228.758 L 298.646 228.758 L 298.646 228.758 Q 303.384 226.32 309.272 226.32 L 309.272 226.32 Z  M 308.812 269.744 L 308.812 269.744 Q 313.872 269.744 318.012 267.398 L 318.012 267.398 L 318.012 267.398 Q 322.152 265.052 324.498 260.728 L 324.498 260.728 L 324.498 260.728 Q 326.844 256.404 326.844 250.884 L 326.844 250.884 L 326.844 250.884 Q 326.844 245.364 324.498 241.04 L 324.498 241.04 L 324.498 241.04 Q 322.152 236.716 318.012 234.37 L 318.012 234.37 L 318.012 234.37 Q 313.872 232.024 308.812 232.024 L 308.812 232.024 L 308.812 232.024 Q 303.66 232.024 299.566 234.37 L 299.566 234.37 L 299.566 234.37 Q 295.472 236.716 293.126 241.04 L 293.126 241.04 L 293.126 241.04 Q 290.78 245.364 290.78 250.884 L 290.78 250.884 L 290.78 250.884 Q 290.78 256.404 293.126 260.728 L 293.126 260.728 L 293.126 260.728 Q 295.472 265.052 299.566 267.398 L 299.566 267.398 L 299.566 267.398 Q 303.66 269.744 308.812 269.744 L 308.812 269.744 Z  M 379.56 226.688 L 386 226.688 L 361.804 280.876 L 361.804 280.876 Q 358.86 287.684 354.996 290.536 L 354.996 290.536 L 354.996 290.536 Q 351.132 293.388 345.704 293.388 L 345.704 293.388 L 345.704 293.388 Q 342.208 293.388 339.172 292.284 L 339.172 292.284 L 339.172 292.284 Q 336.136 291.18 333.928 288.972 L 333.928 288.972 L 336.964 284.096 L 336.964 284.096 Q 340.644 287.776 345.796 287.776 L 345.796 287.776 L 345.796 287.776 Q 349.108 287.776 351.454 285.936 L 351.454 285.936 L 351.454 285.936 Q 353.8 284.096 355.824 279.68 L 355.824 279.68 L 357.94 274.988 L 336.32 226.688 L 343.128 226.688 L 361.344 267.812 L 379.56 226.688 Z  M 62.62 210.68 L 68.232 210.68 L 68.232 275.08 L 61.7 275.08 L 61.7 223.56 L 36.4 266.892 L 33.18 266.892 L 7.88 223.836 L 7.88 275.08 L 1.348 275.08 L 1.348 210.68 L 6.96 210.68 L 34.928 258.428 L 62.62 210.68 Z  M 104.756 226.32 L 104.756 226.32 Q 114.232 226.32 119.292 231.058 L 119.292 231.058 L 119.292 231.058 Q 124.352 235.796 124.352 245.088 L 124.352 245.088 L 124.352 275.08 L 118.096 275.08 L 118.096 267.536 L 118.096 267.536 Q 115.888 271.308 111.61 273.424 L 111.61 273.424 L 111.61 273.424 Q 107.332 275.54 101.444 275.54 L 101.444 275.54 L 101.444 275.54 Q 93.348 275.54 88.564 271.676 L 88.564 271.676 L 88.564 271.676 Q 83.78 267.812 83.78 261.464 L 83.78 261.464 L 83.78 261.464 Q 83.78 255.3 88.242 251.528 L 88.242 251.528 L 88.242 251.528 Q 92.704 247.756 102.456 247.756 L 102.456 247.756 L 117.82 247.756 L 117.82 244.812 L 117.82 244.812 Q 117.82 238.556 114.324 235.29 L 114.324 235.29 L 114.324 235.29 Q 110.828 232.024 104.112 232.024 L 104.112 232.024 L 104.112 232.024 Q 99.512 232.024 95.28 233.542 L 95.28 233.542 L 95.28 233.542 Q 91.048 235.06 88.012 237.728 L 88.012 237.728 L 85.068 232.852 L 85.068 232.852 Q 88.748 229.724 93.9 228.022 L 93.9 228.022 L 93.9 228.022 Q 99.052 226.32 104.756 226.32 L 104.756 226.32 Z  M 102.456 270.388 L 102.456 270.388 Q 107.976 270.388 111.932 267.858 L 111.932 267.858 L 111.932 267.858 Q 115.888 265.328 117.82 260.544 L 117.82 260.544 L 117.82 252.632 L 102.64 252.632 L 102.64 252.632 Q 90.22 252.632 90.22 261.28 L 90.22 261.28 L 90.22 261.28 Q 90.22 265.512 93.44 267.95 L 93.44 267.95 L 93.44 267.95 Q 96.66 270.388 102.456 270.388 L 102.456 270.388 Z  M 179.92 206.816 L 186.452 206.816 L 186.452 275.08 L 180.196 275.08 L 180.196 265.512 L 180.196 265.512 Q 177.252 270.388 172.422 272.964 L 172.422 272.964 L 172.422 272.964 Q 167.592 275.54 161.52 275.54 L 161.52 275.54 L 161.52 275.54 Q 154.712 275.54 149.192 272.412 L 149.192 272.412 L 149.192 272.412 Q 143.672 269.284 140.544 263.672 L 140.544 263.672 L 140.544 263.672 Q 137.416 258.06 137.416 250.884 L 137.416 250.884 L 137.416 250.884 Q 137.416 243.708 140.544 238.096 L 140.544 238.096 L 140.544 238.096 Q 143.672 232.484 149.192 229.402 L 149.192 229.402 L 149.192 229.402 Q 154.712 226.32 161.52 226.32 L 161.52 226.32 L 161.52 226.32 Q 167.408 226.32 172.146 228.758 L 172.146 228.758 L 172.146 228.758 Q 176.884 231.196 179.92 235.888 L 179.92 235.888 L 179.92 206.816 Z  M 162.072 269.744 L 162.072 269.744 Q 167.132 269.744 171.226 267.398 L 171.226 267.398 L 171.226 267.398 Q 175.32 265.052 177.666 260.728 L 177.666 260.728 L 177.666 260.728 Q 180.012 256.404 180.012 250.884 L 180.012 250.884 L 180.012 250.884 Q 180.012 245.364 177.666 241.04 L 177.666 241.04 L 177.666 241.04 Q 175.32 236.716 171.226 234.37 L 171.226 234.37 L 171.226 234.37 Q 167.132 232.024 162.072 232.024 L 162.072 232.024 L 162.072 232.024 Q 156.92 232.024 152.826 234.37 L 152.826 234.37 L 152.826 234.37 Q 148.732 236.716 146.386 241.04 L 146.386 241.04 L 146.386 241.04 Q 144.04 245.364 144.04 250.884 L 144.04 250.884 L 144.04 250.884 Q 144.04 256.404 146.386 260.728 L 146.386 260.728 L 146.386 260.728 Q 148.732 265.052 152.826 267.398 L 152.826 267.398 L 152.826 267.398 Q 156.92 269.744 162.072 269.744 L 162.072 269.744 Z  M 246.896 250.884 L 246.804 252.908 L 206.324 252.908 L 206.324 252.908 Q 206.876 260.452 212.12 265.098 L 212.12 265.098 L 212.12 265.098 Q 217.364 269.744 225.368 269.744 L 225.368 269.744 L 225.368 269.744 Q 229.876 269.744 233.648 268.134 L 233.648 268.134 L 233.648 268.134 Q 237.42 266.524 240.18 263.396 L 240.18 263.396 L 243.86 267.628 L 243.86 267.628 Q 240.64 271.492 235.81 273.516 L 235.81 273.516 L 235.81 273.516 Q 230.98 275.54 225.184 275.54 L 225.184 275.54 L 225.184 275.54 Q 217.732 275.54 211.982 272.366 L 211.982 272.366 L 211.982 272.366 Q 206.232 269.192 203.012 263.58 L 203.012 263.58 L 203.012 263.58 Q 199.792 257.968 199.792 250.884 L 199.792 250.884 L 199.792 250.884 Q 199.792 243.8 202.874 238.188 L 202.874 238.188 L 202.874 238.188 Q 205.956 232.576 211.338 229.448 L 211.338 229.448 L 211.338 229.448 Q 216.72 226.32 223.436 226.32 L 223.436 226.32 L 223.436 226.32 Q 230.152 226.32 235.488 229.448 L 235.488 229.448 L 235.488 229.448 Q 240.824 232.576 243.86 238.142 L 243.86 238.142 L 243.86 238.142 Q 246.896 243.708 246.896 250.884 L 246.896 250.884 Z  M 223.436 231.932 L 223.436 231.932 Q 216.444 231.932 211.706 236.394 L 211.706 236.394 L 211.706 236.394 Q 206.968 240.856 206.324 248.032 L 206.324 248.032 L 240.64 248.032 L 240.64 248.032 Q 239.996 240.856 235.258 236.394 L 235.258 236.394 L 235.258 236.394 Q 230.52 231.932 223.436 231.932 L 223.436 231.932 Z " fill="rgb(255,255,255)"/></g></svg>