<?xml version="1.0" encoding="UTF-8" standalone="no"?><!-- Generator: Gravit.io --><svg xmlns="http://www.w3.org/2000/svg" xmlns:xlink="http://www.w3.org/1999/xlink" style="isolation:isolate" viewBox="0 0 250 250" width="250pt" height="250pt"><defs><clipPath id="_clipPath_9m65Sg9VhpkqfyGYVmQdSYrYgeuC1QxM"><rect width="250" height="250"/></clipPath></defs><g clip-path="url(#_clipPath_9m65Sg9VhpkqfyGYVmQdSYrYgeuC1QxM)"><path d="M 61.336 0 L 188.664 0 C 222.516 0 250 27.484 250 61.336 L 250 188.664 C 250 222.516 222.516 250 188.664 250 L 61.336 250 C 27.484 250 0 222.516 0 188.664 L 0 61.336 C 0 27.484 27.484 0 61.336 0 Z" style="stroke:none;fill:#568EA6;stroke-miterlimit:10;"/><g><path d=" M 215.469 59.345 L 215.469 209.417 C 215.469 212.758 212.758 215.469 209.417 215.469 L 40.583 215.469 C 37.242 215.469 34.531 212.758 34.531 209.417 L 34.531 40.583 C 34.531 37.243 37.242 34.531 40.583 34.531 L 190.655 34.531 L 215.469 59.345 L 215.469 59.345 Z " fill="rgb(16,55,72)"/><path d="M 87.57 40.93 L 87.57 40.93 C 89.888 40.93 91.77 43.151 91.77 45.887 L 91.77 72.803 C 91.77 75.539 89.888 77.76 87.57 77.76 L 87.57 77.76 C 85.252 77.76 83.37 75.539 83.37 72.803 L 83.37 45.887 C 83.37 43.151 85.252 40.93 87.57 40.93 Z" style="stroke:none;fill:#568EA6;stroke-miterlimit:10;"/><path d=" M 172.311 38.801 L 172.311 34.531 L 180.851 34.531 L 180.851 38.801 L 180.851 100.587 L 69.149 100.587 L 69.149 38.801 L 69.149 34.531 L 77.689 34.531 L 77.689 38.801 L 77.689 92.047 L 172.311 92.047 L 172.311 38.801 Z " fill="rgb(86,142,166)"/><rect x="69.149" y="152.749" width="111.702" height="56.668" transform="matrix(1,0,0,1,0,0)" fill="rgb(86,142,166)"/><path d="M 157.86 170.26 L 157.86 172.29 C 157.86 174.05 156.431 175.48 154.671 175.48 L 95.329 175.48 C 93.569 175.48 92.14 174.05 92.14 172.29 L 92.14 170.26 C 92.14 168.5 93.569 167.07 95.329 167.07 L 154.671 167.07 C 156.431 167.07 157.86 168.5 157.86 170.26 Z" style="stroke:none;fill:#103748;stroke-miterlimit:10;"/><path d="M 157.86 189.877 L 157.86 191.903 C 157.86 193.662 156.431 195.09 154.671 195.09 L 95.329 195.09 C 93.569 195.09 92.14 193.662 92.14 191.903 L 92.14 189.877 C 92.14 188.118 93.569 186.69 95.329 186.69 L 154.671 186.69 C 156.431 186.69 157.86 188.118 157.86 189.877 Z" style="stroke:none;fill:#103748;stroke-miterlimit:10;"/></g></g></svg>